<?xml version="1.0"?>
<svg xmlns="http://www.w3.org/2000/svg" height="512px" viewBox="0 0 512 512" width="512px"><g><path d="m256 0c-140.609375 0-256 115.390625-256 256s115.390625 256 256 256c44.796875 0 88.902344-11.835938 127.527344-34.234375l-15.058594-25.957031c-34.054688 19.746094-72.949219 30.191406-112.46875 30.191406-124.070312 0-226-101.929688-226-226s101.929688-226 226-226 226 101.929688 226 226c0 39.902344-10.441406 78.867188-30 112.71875v-36.71875h-30v90h90v-30h-39.023438c25.195313-40.328125 39.023438-88.222656 39.023438-136 0-140.609375-115.390625-256-256-256zm0 0" data-original="#000000" class="active-path" data-old_color="#000000" fill="#65B48F"/><path d="m256 90c-90.980469 0-166 75.019531-166 166s75.019531 166 166 166 166-75.019531 166-166-75.019531-166-166-166zm105 181h-120v-121h30v91h90zm0 0" data-original="#000000" class="active-path" data-old_color="#000000" fill="#65B48F"/></g> </svg>
