<?xml version="1.0"?>
<svg xmlns="http://www.w3.org/2000/svg" xmlns:xlink="http://www.w3.org/1999/xlink" version="1.1" id="Capa_1" x="0px" y="0px" width="512px" height="512px" viewBox="0 0 131.831 131.832" style="enable-background:new 0 0 131.831 131.832;" xml:space="preserve"><g><g>
	<g>
		<path d="M123.604,43.617c0-0.118-0.06-0.208-0.06-0.32L113.081,5.212C112.764,2.351,109.886,0,106.679,0H25.155    c-3.208,0-6.091,2.351-6.406,5.212L8.288,43.297c0,0.112-0.061,0.202-0.061,0.32v10.484c0,2.722,1.069,5.193,2.785,7.059    L8.288,76.914c0,0.115-0.061,0.209-0.061,0.325v10.482c0,2.72,1.069,5.193,2.785,7.06l-2.724,15.754    c0,0.114-0.061,0.207-0.061,0.322v10.484c0,5.784,4.706,10.49,10.489,10.49h94.396c5.784,0,10.49-4.706,10.49-10.49v-10.484    c0-0.115-0.06-0.208-0.06-0.322l-2.726-15.754c1.718-1.866,2.785-4.328,2.785-7.06V77.239c0-0.116-0.06-0.21-0.06-0.325    l-2.726-15.753c1.718-1.866,2.785-4.332,2.785-7.059V43.617z M118.356,121.341c0,2.895-2.354,5.247-5.243,5.247H18.722    c-2.886,0-5.244-2.353-5.244-5.247v-10.484c0-2.895,2.358-5.248,5.244-5.248h94.399c2.882,0,5.246,2.354,5.246,5.248v10.484    H118.356z M118.356,87.721c0,2.896-2.354,5.248-5.243,5.248H18.722c-2.886,0-5.244-2.353-5.244-5.248V77.239    c0-2.896,2.358-5.249,5.244-5.249h94.399c2.882,0,5.246,2.354,5.246,5.249v10.482H118.356z M118.356,54.102    c0,2.892-2.354,5.25-5.243,5.25H18.722c-2.886,0-5.244-2.358-5.244-5.25V43.617c0-2.892,2.358-5.25,5.244-5.25h94.399    c2.882,0,5.246,2.358,5.246,5.25v10.484H118.356z" data-original="#000000" class="active-path" data-old_color="#000000" fill="#65B48F"/>
		<path d="M24.786,112.329c2.081,0,3.769,1.686,3.769,3.766c0,2.084-1.688,3.775-3.769,3.775c-2.086,0-3.774-1.691-3.774-3.775    C21.012,114.014,22.7,112.329,24.786,112.329z" data-original="#000000" class="active-path" data-old_color="#000000" fill="#65B48F"/>
		<path d="M24.786,78.709c2.081,0,3.769,1.686,3.769,3.765c0,2.085-1.688,3.775-3.769,3.775c-2.086,0-3.774-1.69-3.774-3.775    C21.012,80.395,22.7,78.709,24.786,78.709z" data-original="#000000" class="active-path" data-old_color="#000000" fill="#65B48F"/>
		<path d="M24.786,45.086c2.081,0,3.769,1.689,3.769,3.77c0,2.082-1.688,3.77-3.769,3.77c-2.086,0-3.774-1.688-3.774-3.77    C21.012,46.775,22.7,45.086,24.786,45.086z" data-original="#000000" class="active-path" data-old_color="#000000" fill="#65B48F"/>
	</g>
</g></g> </svg>
